HIERARCHY
ROOT root
{
	OFFSET 0.000000 0.000000 0.000000
	CHANNELS 6 Xposition Yposition Zposition Zrotation Yrotation Xrotation
	JOINT lhip
	{
		OFFSET 0.058581 -0.082280 -0.017664
		CHANNELS 3 Zrotation Yrotation Xrotation
		JOINT lknee
		{
			OFFSET 0.043451 -0.386469 0.008037
			CHANNELS 3 Zrotation Yrotation Xrotation
			JOINT lankle
			{
				OFFSET -0.014790 -0.426874 -0.037428
				CHANNELS 3 Zrotation Yrotation Xrotation
				JOINT ltoe
				{
					OFFSET 0.041054 -0.060286 0.122042
					CHANNELS 3 Zrotation Yrotation Xrotation
					End Site
					{
						OFFSET 0.000000 0.000000 0.000000
					}
				}
			}
		}
	}
	JOINT rhip
	{
		OFFSET -0.060310 -0.090513 -0.013543
		CHANNELS 3 Zrotation Yrotation Xrotation
		JOINT rknee
		{
			OFFSET -0.043257 -0.383688 -0.004843
			CHANNELS 3 Zrotation Yrotation Xrotation
			JOINT rankle
			{
				OFFSET 0.019056 -0.420046 -0.034562
				CHANNELS 3 Zrotation Yrotation Xrotation
				JOINT rtoe
				{
					OFFSET -0.034840 -0.062106 0.130323
					CHANNELS 3 Zrotation Yrotation Xrotation
					End Site
					{
						OFFSET 0.000000 0.000000 0.000000
					}
				}
			}
		}
	}
	JOINT lowerback
	{
		OFFSET 0.004439 0.124404 -0.038385
		CHANNELS 3 Zrotation Yrotation Xrotation
		JOINT upperback
		{
			OFFSET 0.004488 0.137956 0.026820
			CHANNELS 3 Zrotation Yrotation Xrotation
			JOINT chest
			{
				OFFSET -0.002265 0.056032 0.002855
				CHANNELS 3 Zrotation Yrotation Xrotation
				JOINT lowerneck
				{
					OFFSET -0.013390 0.211636 -0.033468
					CHANNELS 3 Zrotation Yrotation Xrotation
					JOINT upperneck
					{
						OFFSET 0.010113 0.088937 0.050410
						CHANNELS 3 Zrotation Yrotation Xrotation
						End Site
						{
							OFFSET 0.000000 0.000000 0.000000
						}
					}
				}
				JOINT lclavicle
				{
					OFFSET 0.071702 0.114000 -0.018898
					CHANNELS 3 Zrotation Yrotation Xrotation
					JOINT lshoulder
					{
						OFFSET 0.122921 0.045205 -0.019046
						CHANNELS 3 Zrotation Yrotation Xrotation
						JOINT lelbow
						{
							OFFSET 0.255332 -0.015649 -0.022946
							CHANNELS 3 Zrotation Yrotation Xrotation
							JOINT lwrist
							{
								OFFSET 0.265709 0.012698 -0.007375
								CHANNELS 3 Zrotation Yrotation Xrotation
								End Site
								{
									OFFSET 0.000000 0.000000 0.000000
								}
							}
						}
					}
				}
				JOINT rclavicle
				{
					OFFSET -0.082954 0.112472 -0.023707
					CHANNELS 3 Zrotation Yrotation Xrotation
					JOINT rshoulder
					{
						OFFSET -0.113228 0.046853 -0.008472
						CHANNELS 3 Zrotation Yrotation Xrotation
						JOINT relbow
						{
							OFFSET -0.260127 -0.014369 -0.031269
							CHANNELS 3 Zrotation Yrotation Xrotation
							JOINT rwrist
							{
								OFFSET -0.269108 0.006794 -0.006027
								CHANNELS 3 Zrotation Yrotation Xrotation
								End Site
								{
									OFFSET 0.000000 0.000000 0.000000
								}
							}
						}
					}
				}
			}
		}
	}
}
MOTION
Frames: 16
Frame Time: 0.033333
1.175235 0.159084 0.982942 -88.463448 2.973880 87.984894 0.388717 -0.554710 6.358343 -3.251230 -14.576516 0.609431 7.489822 9.630426 -17.460718 0.000000 -0.000000 0.000000 3.375740 -1.563758 0.880014 3.547402 3.079394 9.341072 1.317900 -4.494985 -14.368076 0.000000 -0.000000 0.000000 -4.365057 2.139983 0.882396 3.083464 -2.363202 3.319470 1.756102 -2.048742 5.038804 6.750983 -0.916373 9.214000 2.483263 -5.060307 13.182220 -24.504301 6.423176 4.546974 -63.852959 -7.005005 8.572271 11.566812 -21.328156 5.019484 -4.270206 -0.562523 -7.622330 23.966004 -5.128863 3.135215 62.899584 1.132192 11.228587 -14.841975 21.030885 -2.139922 9.003752 0.539060 -9.558680 
1.174699 0.158699 0.982500 -88.838408 3.261340 86.202730 0.698660 0.353403 8.513585 -3.074348 -15.136850 0.270046 7.533092 9.678817 -17.672107 0.000000 -0.000000 0.000000 3.533096 -1.999143 2.877404 3.462770 3.300291 9.283174 1.614617 -4.065601 -14.454297 0.000000 -0.000000 0.000000 -3.569134 2.225589 3.198582 2.641318 -2.062477 3.059769 1.677781 -1.865091 5.394854 6.764670 -1.049478 8.436688 2.669046 -4.986408 13.344013 -24.076418 6.096174 4.115774 -63.940988 -7.192310 8.243114 10.894124 -21.319018 5.192509 -4.226908 -1.163078 -8.617772 22.990786 -4.904100 2.580689 63.984052 0.509409 10.791224 -15.106205 20.606133 -2.424720 8.620817 -0.134735 -10.252224 
1.174529 0.158871 0.982148 -88.962767 3.218135 86.327703 0.655801 0.380256 8.354551 -3.111551 -15.061741 0.322643 7.513407 9.731434 -17.549847 0.000000 -0.000000 0.000000 3.399868 -2.234985 2.528428 3.595354 3.611470 9.636567 1.715927 -4.182651 -14.339641 0.000000 -0.000000 0.000000 -3.639009 2.352309 3.006789 2.694847 -2.029445 3.102961 1.637658 -1.987537 5.647128 6.974824 -1.256372 8.384031 2.877459 -5.145487 13.240786 -24.220621 6.202624 3.822765 -63.483191 -7.205562 8.306652 10.563025 -21.765586 5.161826 -4.290165 -1.203424 -8.548109 23.070662 -5.262724 2.387513 63.646999 0.294018 10.830132 -14.991764 21.148834 -2.544867 8.616627 -0.279649 -9.976324 
1.174000 0.158874 0.982120 -89.000227 3.295364 86.481382 0.741668 0.352811 8.250005 -3.083131 -15.023534 0.257714 7.432386 9.716345 -17.326187 0.000000 -0.000000 0.000000 3.488004 -2.054155 2.388759 3.615736 3.775394 9.659644 1.799181 -4.398072 -14.233724 0.000000 -0.000000 0.000000 -3.714228 2.268879 2.816377 2.835225 -2.019330 3.114994 1.710899 -1.967469 5.790884 7.089738 -1.296905 8.121263 2.657327 -5.196370 13.101457 -24.264584 6.437800 3.542573 -63.268373 -7.132355 8.494441 10.399491 -22.545780 5.487376 -4.301008 -1.286439 -8.504801 23.016311 -5.479276 2.231056 63.335556 0.201767 10.968148 -14.983743 21.445288 -2.556686 8.441027 -0.212223 -9.770268 
1.174086 0.158530 0.982285 -88.964147 3.284748 86.464241 0.669480 0.324456 8.240998 -3.032662 -15.022255 0.305997 7.399186 9.743216 -17.269606 0.000000 -0.000000 0.000000 3.495149 -1.974901 2.327349 3.606354 3.810006 9.750767 1.849076 -4.591738 -14.274921 0.000000 -0.000000 0.000000 -3.703313 2.274074 2.894287 2.838180 -2.030783 3.164344 1.695938 -1.980277 5.838601 7.163246 -1.259507 7.934736 2.738843 -5.264789 12.993831 -24.348298 6.377988 3.383138 -63.061599 -7.196689 8.569280 10.340832 -22.878591 5.360875 -3.988179 -1.352130 -8.307439 23.081689 -5.525984 2.099322 63.162155 0.218799 11.029376 -14.979487 21.791342 -2.701866 8.278660 -0.315127 -9.741517 
1.174048 0.158401 0.982461 -89.013505 3.309300 86.430651 0.701059 0.372258 8.251972 -3.081470 -14.973256 0.332600 7.336405 9.787734 -17.260611 0.000000 -0.000000 0.000000 3.481684 -1.913454 2.391437 3.654945 3.736826 9.661448 1.768669 -4.559033 -14.274314 0.000000 -0.000000 0.000000 -3.664113 2.249566 2.808736 2.806945 -2.007018 3.355672 1.646694 -1.976385 5.745709 7.025894 -1.054872 8.508543 2.810176 -4.919768 13.163358 -24.253462 6.156799 3.601073 -63.042379 -7.276448 8.592433 10.548308 -23.551926 5.295877 -3.565998 -1.350907 -8.424131 23.049597 -5.477986 2.273565 63.134730 0.307190 11.022323 -15.123249 22.287276 -2.580965 8.102922 -0.454926 -9.781996 
1.173926 0.158697 0.982384 -89.042977 3.344990 86.434335 0.783137 0.369063 8.297127 -3.077859 -14.962480 0.236990 7.311223 9.792462 -17.133409 0.000000 -0.000000 0.000000 3.529064 -1.747047 2.494364 3.586399 3.417325 9.478106 1.863425 -4.382319 -14.180426 0.000000 -0.000000 0.000000 -3.678553 2.168020 2.814848 2.790520 -1.988245 3.409103 1.669731 -1.894320 5.665579 6.976146 -0.868086 8.732747 2.960772 -4.777477 13.268003 -24.103601 6.255577 3.530848 -63.231421 -7.401440 8.588892 10.714094 -24.136052 5.082682 -3.236176 -1.289629 -8.574894 23.028537 -5.523526 2.268501 63.098031 0.501987 11.064927 -15.273755 22.817387 -2.571723 8.080037 -0.243596 -9.692964 
1.173872 0.158903 0.982465 -89.147777 3.360037 86.393009 0.805144 0.368405 8.408816 -3.054906 -14.960135 0.109943 7.198656 9.804238 -17.086789 0.000000 -0.000000 0.000000 3.578614 -1.632782 2.570239 3.586723 3.381429 9.415337 1.887602 -4.406609 -14.129085 0.000000 -0.000000 0.000000 -3.685237 2.157136 2.813026 2.792217 -1.954515 3.484215 1.641773 -1.896871 5.712842 7.005941 -0.961421 8.796987 2.884133 -4.858367 13.359781 -24.106166 6.222854 3.524637 -63.277946 -7.562596 8.745468 10.737661 -24.813639 4.910764 -2.960719 -1.587913 -9.016528 22.979484 -5.384393 2.113915 63.142646 0.811688 11.161256 -15.184968 22.956399 -2.630603 7.932796 -0.259971 -9.908273 
1.174068 0.159048 0.982513 -89.062295 3.409768 86.405992 0.892607 0.391240 8.319026 -3.093829 -14.905594 0.218778 7.143824 9.673444 -17.128513 0.000000 -0.000000 0.000000 3.639992 -1.658450 2.587943 3.557807 3.326785 9.339762 1.893678 -4.350927 -14.074607 0.000000 -0.000000 0.000000 -3.626668 2.066530 2.909529 2.758697 -2.000001 3.444156 1.654939 -1.871874 5.692169 6.974002 -0.896463 8.703622 2.974307 -4.793943 13.339382 -24.173017 6.131226 3.497769 -63.385260 -7.716403 8.723731 11.040902 -25.272636 4.152690 -1.867474 -1.457424 -9.103990 22.966430 -5.240458 1.983486 63.154184 0.927148 11.242938 -15.267681 23.405523 -2.781123 7.636346 -0.240157 -9.905176 
1.174297 0.159199 0.982431 -89.051382 3.374760 86.439074 0.856374 0.402714 8.285016 -3.061881 -14.863752 0.164653 7.160871 9.654816 -17.121928 0.000000 -0.000000 0.000000 3.638019 -1.630110 2.493645 3.518197 3.270794 9.409718 1.968506 -4.354914 -14.136544 0.000000 -0.000000 0.000000 -3.667551 2.006035 2.901907 2.752068 -2.006066 3.465273 1.657638 -1.870353 5.637654 6.995529 -0.889750 8.752842 2.823874 -4.726590 13.521254 -24.144116 6.078248 3.522681 -63.454322 -7.858277 8.796639 11.012793 -25.999770 4.081155 -1.623869 -1.349945 -9.067936 22.914021 -5.129248 1.962175 63.208078 1.174643 11.299284 -15.437471 23.743889 -2.888308 7.561981 -0.128003 -9.762951 
1.174244 0.159501 0.982441 -89.005465 3.353715 86.342896 0.871731 0.452354 8.361901 -3.060551 -14.812391 0.171249 7.185220 9.580150 -17.127499 0.000000 -0.000000 0.000000 3.634223 -1.777499 2.601813 3.473683 3.252386 9.381844 1.942255 -4.249591 -14.185593 0.000000 -0.000000 0.000000 -3.714623 2.051760 2.895666 2.793243 -2.034647 3.635420 1.690528 -1.880918 5.602453 7.105795 -1.054241 8.755975 2.757170 -4.820432 13.493574 -24.163411 5.959349 3.525568 -63.503614 -7.936660 8.850031 11.046293 -26.543396 3.993852 -1.693571 -1.555976 -9.279069 22.928253 -5.069665 1.928284 63.179650 1.392889 11.157854 -15.617267 24.016572 -3.290669 7.647797 -0.274844 -9.865588 
1.174690 0.159563 0.982440 -88.954135 3.334387 86.371439 0.823430 0.382329 8.256151 -3.019070 -14.870686 0.217804 7.081764 9.580695 -17.022405 0.000000 -0.000000 0.000000 3.598024 -1.801383 2.507517 3.495823 3.218567 9.468983 2.037049 -4.248678 -14.175934 0.000000 -0.000000 0.000000 -3.663088 2.098388 2.936714 2.768038 -2.025137 3.568192 1.660073 -1.906734 5.637313 7.096902 -0.847009 8.692414 2.737894 -4.674500 13.531268 -24.165964 5.910066 3.359170 -63.510454 -8.000389 9.044627 10.868243 -26.742553 4.430019 -1.586175 -1.549088 -8.987959 22.924561 -5.142145 1.769684 63.184973 1.422398 11.203564 -15.548422 24.300136 -3.335047 7.457477 -0.221324 -9.899336 
1.175095 0.159643 0.982515 -88.867346 3.280909 86.353719 0.726309 0.275037 8.213440 -2.968621 -14.840297 0.271441 7.110138 9.614014 -17.010377 0.000000 -0.000000 0.000000 3.521735 -1.780464 2.499172 3.548064 3.195037 9.453483 2.046699 -4.321627 -14.108346 0.000000 -0.000000 0.000000 -3.686819 2.136140 2.989497 2.776597 -2.049428 3.565702 1.677031 -1.968889 5.595150 7.086256 -0.907066 8.676523 2.798811 -4.681478 13.393403 -24.143908 5.822831 3.405320 -63.664688 -7.988798 9.166824 10.908768 -27.136712 4.619082 -1.969130 -1.568791 -9.303636 22.874986 -5.120025 1.820310 63.235957 1.529102 11.176402 -15.548941 24.379722 -3.319103 7.571750 -0.283004 -9.971188 
1.175119 0.159773 0.982529 -88.859380 3.314697 86.298333 0.765852 0.271272 8.222086 -2.959233 -14.787219 0.331883 7.052282 9.640396 -17.054466 0.000000 -0.000000 0.000000 3.581389 -1.797652 2.530181 3.529251 3.139323 9.516530 2.079792 -4.286928 -14.140875 0.000000 -0.000000 0.000000 -3.611255 2.108740 2.987991 2.792355 -2.054936 3.588069 1.659499 -1.964267 5.635202 7.109251 -1.064525 8.711331 2.755342 -4.876213 13.519232 -24.235311 5.832250 3.360734 -63.725179 -8.074897 9.175585 11.012969 -27.230361 4.418594 -1.750121 -1.761136 -9.173591 22.862046 -5.090007 1.834372 63.199319 1.628963 11.200569 -15.477257 24.470153 -3.233373 7.524851 -0.310615 -9.811428 
1.175087 0.159920 0.982685 -88.948089 3.283600 86.225510 0.721327 0.302002 8.308764 -2.922136 -14.830338 0.321357 7.068984 9.654417 -17.066945 0.000000 -0.000000 0.000000 3.550101 -1.810070 2.628427 3.527827 3.189906 9.470420 2.058860 -4.212963 -14.176878 0.000000 -0.000000 0.000000 -3.579139 2.122280 2.948877 2.766677 -2.042368 3.626427 1.664325 -1.930122 5.603190 7.037549 -0.895256 8.865427 2.852380 -4.651095 13.414119 -24.177613 5.794300 3.462487 -63.905403 -7.963736 9.186993 11.191326 -27.203434 4.564371 -1.771512 -1.654285 -9.127770 22.846031 -5.084748 1.876000 63.225372 1.598513 11.139208 -15.400096 24.426534 -3.118639 7.556748 -0.391021 -9.837320 
1.175344 0.160078 0.982563 -88.951169 3.300986 86.203363 0.716469 0.289815 8.191762 -2.937449 -14.859090 0.552082 7.210962 9.735147 -17.087108 0.000000 -0.000000 0.000000 3.605030 -1.787762 2.529783 3.533407 3.232872 9.663997 1.947794 -4.287773 -14.238099 0.000000 -0.000000 0.000000 -3.530303 2.099935 3.047430 2.803515 -2.023942 3.518987 1.669029 -1.880288 5.394965 6.970545 -1.253797 9.018346 2.882260 -4.928766 13.537046 -24.117786 5.777924 3.689214 -64.091309 -7.821699 9.233045 11.056033 -27.275128 4.809330 -1.710479 -1.554013 -9.240799 22.763988 -5.091700 2.131921 63.291560 1.412936 11.053233 -15.452380 24.556271 -3.040022 7.488581 -0.473561 -9.944181 
